<?xml version="1.0" encoding="UTF-8" standalone="no"?>
<!-- Created with Inkscape (http://www.inkscape.org/) -->

<svg
   width="128"
   height="128"
   viewBox="0 0 33.866667 33.866667"
   version="1.1"
   id="svg235"
   inkscape:version="1.2.2 (b0a84865, 2022-12-01)"
   sodipodi:docname="fg.svg"
   inkscape:export-filename="favicon.png"
   inkscape:export-xdpi="446.83636"
   inkscape:export-ydpi="446.83636"
   xml:space="preserve"
   xmlns:inkscape="http://www.inkscape.org/namespaces/inkscape"
   xmlns:sodipodi="http://sodipodi.sourceforge.net/DTD/sodipodi-0.dtd"
   xmlns="http://www.w3.org/2000/svg"
   xmlns:svg="http://www.w3.org/2000/svg"><sodipodi:namedview
     id="namedview237"
     pagecolor="#ffffff"
     bordercolor="#111111"
     borderopacity="1"
     inkscape:showpageshadow="0"
     inkscape:pageopacity="0"
     inkscape:pagecheckerboard="1"
     inkscape:deskcolor="#d1d1d1"
     inkscape:document-units="px"
     showgrid="false"
     inkscape:zoom="5.9051617"
     inkscape:cx="60.794271"
     inkscape:cy="56.476015"
     inkscape:window-width="1390"
     inkscape:window-height="1205"
     inkscape:window-x="997"
     inkscape:window-y="29"
     inkscape:window-maximized="0"
     inkscape:current-layer="g26201" /><defs
     id="defs232" /><g
     inkscape:label="Layer 1"
     inkscape:groupmode="layer"
     id="layer1"><g
       id="g303"
       transform="translate(-108.86511,-36.277961)"
       style="stroke-width:1.00012501;stroke-dasharray:none"><g
         id="g26201"
         transform="translate(0.00982796,-1.0590097)"><g
           id="g28916"
           transform="translate(0.52916832)"><path
             style="color:#000000;fill:#000000;stroke-width:1.00013;stroke-linecap:round;stroke-dasharray:none"
             d="m 125.5332,42.165495 c -0.69338,5.02e-4 -1.25536,0.562475 -1.25586,1.255859 v 3.175782 c 5e-4,0.693384 0.56248,1.255357 1.25586,1.255859 0.69415,5.8e-4 1.25732,-0.56171 1.25782,-1.255859 v -3.175782 c -5e-4,-0.69415 -0.56367,-1.256439 -1.25782,-1.255859 z m 5.29297,0 c -0.69415,-5.75e-4 -1.25731,0.561713 -1.25781,1.255859 v 3.175782 c 5e-4,0.694145 0.56366,1.256433 1.25781,1.255859 0.69338,-5.02e-4 1.25536,-0.562475 1.25586,-1.255859 v -3.175782 c -5e-4,-0.693384 -0.56248,-1.255357 -1.25586,-1.255859 z"
             id="path1648"
             sodipodi:nodetypes="cccccccccccccc" /><path
             style="color:#000000;fill:#000000;stroke-width:1.00013;stroke-linecap:round;stroke-dasharray:none"
             d="m 122.88867,43.753386 c -0.69415,-5.75e-4 -1.25731,0.561713 -1.25781,1.255859 5e-4,0.694145 0.56366,1.256433 1.25781,1.255859 h 10.58203 c 0.69415,5.8e-4 1.25732,-0.56171 1.25782,-1.255859 -5e-4,-0.69415 -0.56367,-1.256439 -1.25782,-1.255859 z"
             id="path1650"
             sodipodi:nodetypes="ccccccc" /><path
             style="color:#000000;fill:#000000;stroke-width:1.00013;stroke-linecap:round;stroke-linejoin:round;stroke-dasharray:none"
             d="m 123.41797,51.208594 c -0.69412,-5.05e-4 -1.25724,0.561743 -1.25781,1.255859 v 1.633073 c -5.8e-4,0.694909 0.5629,1.258388 1.25781,1.257813 0.69415,-5.02e-4 1.25644,-0.563666 1.25586,-1.257813 v -0.377214 h 7.01172 v 0.377214 c -5.8e-4,0.694147 0.56171,1.257311 1.25586,1.257813 0.69491,5.75e-4 1.25839,-0.562904 1.25781,-1.257813 v -1.633073 c -5.7e-4,-0.694116 -0.56369,-1.256364 -1.25781,-1.255859 z"
             id="path1652"
             sodipodi:nodetypes="ccccccccccccc" /><path
             style="color:#000000;fill:#000000;stroke-width:1.00013;stroke-linecap:round;stroke-dasharray:none"
             d="m 125.00391,55.658073 c -0.69415,5.02e-4 -1.25644,0.563666 -1.25586,1.257813 5e-4,0.693384 0.56248,1.255357 1.25586,1.255859 h 6.35156 c 0.69338,-5.02e-4 1.25536,-0.562475 1.25586,-1.255859 5.8e-4,-0.694147 -0.56171,-1.257311 -1.25586,-1.257813 z"
             id="path1654"
             sodipodi:nodetypes="ccccccc" /><path
             style="color:#000000;fill:#000000;stroke-width:1.00013;stroke-linecap:round;stroke-dasharray:none"
             d="m 122.88867,58.820183 c -0.69491,-5.76e-4 -1.25839,0.562903 -1.25781,1.257812 5e-4,0.694145 0.56366,1.256433 1.25781,1.255859 h 10.58203 c 0.69415,5.8e-4 1.25732,-0.56171 1.25782,-1.255859 5.8e-4,-0.694912 -0.56291,-1.258393 -1.25782,-1.257812 z"
             id="path1656"
             sodipodi:nodetypes="ccccccc" /><path
             style="color:#000000;fill:#000000;stroke-width:1.00013;stroke-linecap:round;stroke-dasharray:none"
             d="m 128.17969,46.927734 c -0.69338,5.02e-4 -1.25536,0.562476 -1.25586,1.25586 v 11.21875 c -1.4469,2.331016 -2.40972,2.953226 -5.21289,4.638672 -0.59489,0.357584 -0.78727,1.129715 -0.42969,1.724609 0.35759,0.59489 1.12972,0.787266 1.72461,0.429687 2.9358,-1.765194 4.5171,-2.831228 6.25195,-5.722656 l 0.17774,-0.298828 V 48.183594 c -5e-4,-0.693384 -0.56248,-1.255358 -1.25586,-1.25586 z"
             id="path1658"
             sodipodi:nodetypes="cccccccccc" /><path
             style="color:#000000;fill:#000000;stroke-width:1.00013;stroke-linecap:round;stroke-linejoin:round;stroke-dasharray:none"
             d="m 118.65404,43.753386 c -0.33319,-2.42e-4 -0.65283,0.131832 -0.88867,0.367187 -0.4908,0.4908 -0.54199,1.343728 0,1.777344 l 2.64649,2.117317 c 0.54198,0.433611 1.28654,0.490798 1.77734,0 0.4908,-0.490799 0.4908,-1.286544 0,-1.777343 l -2.64648,-2.117318 c -0.23585,-0.235358 -0.55549,-0.367432 -0.88868,-0.367187 z"
             id="path1662"
             sodipodi:nodetypes="ccsssccc" /><path
             style="color:#000000;fill:#000000;stroke-width:1.00013;stroke-linecap:round;stroke-linejoin:round;stroke-dasharray:none"
             d="m 116.53736,50.089844 c -0.33318,-2.42e-4 -0.65283,0.131832 -0.88867,0.367187 -0.4908,0.4908 -0.54198,1.343734 0,1.777344 l 2.64649,2.117317 c 0.54199,0.433616 1.28654,0.490798 1.77734,0 0.4908,-0.490799 0.4908,-1.286544 0,-1.777343 l -0.64873,-0.648727 -1.99775,-1.468591 c -0.23584,-0.235358 -0.55549,-0.367432 -0.88868,-0.367187 z"
             id="path1664"
             sodipodi:nodetypes="ccssscccc" /><path
             style="color:#000000;fill:#000000;stroke-width:1.00013;stroke-linecap:round;stroke-linejoin:round;stroke-dasharray:none"
             d="m 119.71302,57.510025 c -0.69415,5.02e-4 -1.25644,0.563666 -1.25586,1.257813 0,1.028936 -1.41845,3.012329 -2.80847,4.402345 -0.4908,0.490799 -0.4908,1.286544 0,1.777343 0.4908,0.490805 1.28655,0.490805 1.77735,0 1.78498,-1.784981 3.54284,-4.033628 3.54284,-6.179688 5.8e-4,-0.694147 -0.56171,-1.257311 -1.25586,-1.257813 z"
             id="path1666"
             sodipodi:nodetypes="ccssccc" /><path
             style="color:#000000;fill:#000000;stroke-width:1.00013;stroke-linecap:round;stroke-dasharray:none"
             d="m 127.5332,58.748047 a 1.25677,1.25677 0 0 0 -0.43164,1.724609 c 1.73486,2.891427 3.31615,3.957462 6.25196,5.722656 a 1.25677,1.25677 0 0 0 1.7246,-0.429687 1.25677,1.25677 0 0 0 -0.42968,-1.724609 c -2.92185,-1.756806 -3.83459,-2.267941 -5.39063,-4.861329 a 1.25677,1.25677 0 0 0 -1.72461,-0.43164 z"
             id="path931" /><path
             style="color:#000000;fill:#000000;stroke-width:1.00013;stroke-linecap:round;stroke-dasharray:none"
             d="m 126.0625,48.190886 c -0.69415,5.02e-4 -1.25644,0.563665 -1.25586,1.257812 5e-4,0.693384 0.56248,1.255358 1.25586,1.25586 h 4.23437 c 0.69338,-5.02e-4 1.25536,-0.562476 1.25586,-1.25586 5.8e-4,-0.694147 -0.56171,-1.25731 -1.25586,-1.257812 z"
             id="path1383"
             sodipodi:nodetypes="ccccccc" /></g></g></g></g></svg>
